<?xml version="1.0" encoding="utf-8"?>
<!-- Generator: Adobe Illustrator 20.1.0, SVG Export Plug-In . SVG Version: 6.00 Build 0)  -->
<svg version="1.1" id="Layer_1" xmlns="http://www.w3.org/2000/svg" xmlns:xlink="http://www.w3.org/1999/xlink" x="0px" y="0px"
	 viewBox="0 0 40 40" style="enable-background:new 0 0 40 40;" xml:space="preserve">
<style type="text/css">
	.st0{fill:none;stroke:#AAAAAA;stroke-width:2;stroke-linecap:round;stroke-linejoin:round;stroke-miterlimit:10;}
	.st1{fill:#5A99D5;}
	.st2{fill:none;stroke:#5A99D5;stroke-width:2;stroke-linecap:round;stroke-linejoin:round;stroke-miterlimit:10;}
	.st3{fill:#AAAAAA;}
	.st4{fill:#FFFFFF;stroke:#AAAAAA;stroke-width:2;stroke-linecap:round;stroke-linejoin:round;stroke-miterlimit:10;}
	.st5{fill:#FFFFFF;stroke:#5A99D5;stroke-width:2;stroke-linecap:round;stroke-linejoin:round;stroke-miterlimit:10;}
</style>
<g>
	<path class="st3" d="M20,2c9.9,0,18,8.1,18,18c0,6.4-3.4,12.4-9,15.6c-2.7,1.6-5.8,2.4-9,2.4s-6.3-0.8-9-2.4C5.4,32.4,2,26.4,2,20
		C2,10.1,10.1,2,20,2 M20,0C9,0,0,9,0,20c0,7.4,4,13.9,10,17.3C12.9,39,16.4,40,20,40s7.1-1,10-2.7c6-3.5,10-9.9,10-17.3
		C40,9,31,0,20,0L20,0z"/>
</g>
<path class="st0" d="M34.9,16.1c-0.5,1-1.5,1.6-2.5,1.6c-0.4,0-0.8-0.1-1.2-0.3l-2.5-1.2c-0.1,0.3-0.3,0.6-0.5,0.9
	c0.1,0.3,0.2,0.6,0.2,1c0,1.5-1.2,2.8-2.8,2.8c-0.7,0-1.3-0.2-1.7-0.6l-3.5,3.5c0.4,0.5,0.6,1.1,0.6,1.7c0,1.5-1.2,2.8-2.8,2.8
	c-0.4,0-0.7-0.1-1-0.2c-0.3,0.2-0.6,0.4-0.9,0.5l1.2,2.5c0.6,1.4,0,3-1.4,3.7c-1.4,0.6-3,0-3.7-1.4l-3.7-6.4c-1-1.1-1.6-2.6-1.6-4.3
	c0-3,2.1-5.6,4.9-6.3l4.5-4.5c0.7-2.8,3.2-4.9,6.3-4.9c1.6,0,3.1,0.6,4.3,1.6l6.4,3.7C35,13.1,35.6,14.8,34.9,16.1z"/>
<circle class="st0" cx="22.9" cy="13.5" r="2"/>
<path class="st0" d="M16.4,21L16.4,21c0.6,0.6,0.6,1.5,0,2.1l-0.1,0.1l0.1,0.1c0.6,0.6,0.6,1.5,0,2.1l0,0c-0.6,0.6-1.5,0.6-2.1,0
	l-0.1-0.1l-0.1,0.1c-0.6,0.6-1.5,0.6-2.1,0l0,0c-0.6-0.6-0.6-1.5,0-2.1l0.1-0.1L12,23.1c-0.6-0.6-0.6-1.5,0-2.1l0,0
	c0.6-0.6,1.5-0.6,2.1,0l0.1,0.1l0.1-0.1C14.9,20.4,15.8,20.4,16.4,21z"/>
</svg>
