<?xml version="1.0" encoding="utf-8"?>
<!-- Generator: Adobe Illustrator 20.1.0, SVG Export Plug-In . SVG Version: 6.00 Build 0)  -->
<svg version="1.1" id="Layer_1" xmlns="http://www.w3.org/2000/svg" xmlns:xlink="http://www.w3.org/1999/xlink" x="0px" y="0px"
	 viewBox="0 0 40 40" style="enable-background:new 0 0 40 40;" xml:space="preserve">
<style type="text/css">
	.st0{fill:none;stroke:#AAAAAA;stroke-width:2;stroke-linecap:round;stroke-linejoin:round;stroke-miterlimit:10;}
	.st1{fill:#5A99D5;}
	.st2{fill:none;stroke:#5A99D5;stroke-width:2;stroke-linecap:round;stroke-linejoin:round;stroke-miterlimit:10;}
	.st3{fill:#AAAAAA;}
	.st4{fill:#FFFFFF;stroke:#AAAAAA;stroke-width:2;stroke-linecap:round;stroke-linejoin:round;stroke-miterlimit:10;}
	.st5{fill:#FFFFFF;stroke:#5A99D5;stroke-width:2;stroke-linecap:round;stroke-linejoin:round;stroke-miterlimit:10;}
</style>
<path class="st2" d="M10,35.3V35c0-4.5,3-8.3,7-9.5c0.2,1.4,1.5,2.5,3,2.5s2.8-1.1,3-2.5c1.6,0.5,3,1.3,4.1,2.5
	c1.8,1.8,2.9,4.3,2.9,7.1v0.3"/>
<path class="st2" d="M23,23.3V25c0,0.1,0,0.3,0,0.5c-0.2,1.4-1.5,2.5-3,2.5s-2.8-1.1-3-2.5c0-0.2,0-0.3,0-0.5v-1.7
	c0.9,0.4,1.9,0.7,3,0.7S22.1,23.8,23,23.3z"/>
<path class="st2" d="M27,15v2c0,2.8-1.6,5.2-4,6.3c-0.9,0.4-1.9,0.7-3,0.7s-2.1-0.2-3-0.7c-2.4-1.1-4-3.5-4-6.3v-2
	c0-0.2,0-0.3,0-0.5c0-0.2,0-0.5,0.1-0.7c0.1-0.4,0.2-0.9,0.3-1.3c0.1-0.2,0.2-0.4,0.2-0.6c0.1-0.2,0.2-0.4,0.3-0.6
	c0.1-0.2,0.2-0.3,0.3-0.4c0.1-0.1,0.1-0.2,0.2-0.3c0.1-0.1,0.2-0.3,0.3-0.4c0.2-0.2,0.3-0.3,0.5-0.5C16,11.7,17.9,13,20,13h6.7
	c0.1,0.3,0.2,0.6,0.2,0.9c0,0.2,0.1,0.4,0.1,0.6C27,14.7,27,14.8,27,15z"/>
<line class="st2" x1="26" y1="38.1" x2="26" y2="34"/>
<line class="st2" x1="14" y1="34" x2="14" y2="38.1"/>
<path class="st2" d="M30,10.5c0,0.7-0.3,1.3-0.7,1.8c-0.5,0.5-1.1,0.7-1.8,0.7H27v1c0,0.2,0,0.3,0,0.5c0-0.2,0-0.4-0.1-0.6
	c0-0.3-0.1-0.6-0.2-0.9H20c-2.1,0-4-1.3-4.7-3.2c-0.2,0.1-0.3,0.3-0.5,0.5c-0.1,0.1-0.2,0.3-0.3,0.4c-0.1,0.1-0.2,0.2-0.2,0.3
	c-0.1,0.1-0.2,0.3-0.3,0.4c-0.1,0.2-0.2,0.4-0.3,0.6c-0.1,0.2-0.2,0.4-0.2,0.6c-0.2,0.4-0.3,0.8-0.3,1.3c0,0.2-0.1,0.5-0.1,0.7
	c0-0.2,0-0.3,0-0.5v-2c0-3.9,3.1-7,7-7h5.5C26.3,5,27,5.7,27,6.5c0,0.8-0.5,1.4-1.3,1.5c-0.1,0-0.1,0-0.2,0h2C28.9,8,30,9.1,30,10.5
	z"/>
<g>
	<path class="st1" d="M20,2c9.9,0,18,8.1,18,18s-8.1,18-18,18S2,29.9,2,20S10.1,2,20,2 M20,0C9,0,0,9,0,20s9,20,20,20s20-9,20-20
		S31,0,20,0L20,0z"/>
</g>
</svg>
